name C:\Users\u0101727\Documents\MyRepositories\upper-imu-dc\Results\main_tracking\Case_48\ABD01_orientations_groundFrame.mot
datacolumns 13
datarows 36
range 8.06000000 8.41000000
endheader 
time	radius_imu_[0][0]	radius_imu_[0][1]	radius_imu_[0][2]	radius_imu_[1][0]	radius_imu_[1][1]	radius_imu_[1][2]	radius_imu_[2][0]	radius_imu_[2][1]	radius_imu_[2][2]	radius_imu_x	radius_imu_y	radius_imu_z	
          8.06000000	          0.97814719	         -0.05908857	          0.19934046	         -0.20790044	         -0.28877052	          0.93455283	          0.00234226	         -0.95557319	         -0.29474461	         -1.87630801	          0.20068483	          0.06033535	
          8.07000000	          0.97789056	         -0.05703836	          0.20118815	         -0.20910999	         -0.27476510	          0.93849728	          0.00174913	         -0.95981809	         -0.28061749	         -1.86134209	          0.20257072	          0.05826195	
          8.08000000	          0.97769993	         -0.05476543	          0.20274019	         -0.21000291	         -0.26079761	          0.94227564	          0.00127002	         -0.96383886	         -0.26648271	         -1.84640661	          0.20415542	          0.05595609	
          8.09000000	          0.97757063	         -0.05228775	          0.20401385	         -0.21060587	         -0.24687972	          0.94588349	          0.00090877	         -0.96763443	         -0.25235447	         -1.83151605	          0.20545627	          0.05343652	
          8.10000000	          0.97749737	         -0.04962488	          0.20502745	         -0.21094654	         -0.23302191	          0.94931678	          0.00066616	         -0.97120449	         -0.23824650	         -1.81668423	          0.20649176	          0.05072373	
          8.11000000	          0.97747445	         -0.04679753	          0.20580012	         -0.21105309	         -0.21923335	          0.95257196	          0.00054024	         -0.97454950	         -0.22417176	         -1.80192398	          0.20728126	          0.04783943	
          8.12000000	          0.97749591	         -0.04382706	          0.20635149	         -0.21095372	         -0.20552181	          0.95564602	          0.00052658	         -0.97767069	         -0.21014221	         -1.78724691	          0.20784472	          0.04480604	
          8.13000000	          0.97755573	         -0.04073509	          0.20670133	         -0.21067607	         -0.19189358	          0.95853662	          0.00061859	         -0.98056999	         -0.19616858	         -1.77266308	          0.20820227	          0.04164625	
          8.14000000	          0.97764801	         -0.03754310	          0.20686924	         -0.21024679	         -0.17835334	          0.96124210	          0.00080781	         -0.98325002	         -0.18226010	         -1.75818082	          0.20837389	          0.03838259	
          8.15000000	          0.97776709	         -0.03427215	          0.20687420	         -0.20969105	         -0.16490409	          0.96376154	          0.00108422	         -0.98571399	         -0.16842436	         -1.74380649	          0.20837896	          0.03503710	
          8.16000000	          0.97790771	         -0.03094263	          0.20673429	         -0.20903217	         -0.15154712	          0.96609473	          0.00143647	         -0.98796560	         -0.15466710	         -1.72954438	          0.20823596	          0.03163112	
          8.17000000	          0.97806508	         -0.02757410	          0.20646639	         -0.20829131	         -0.13828196	          0.96824213	          0.00185217	         -0.99000897	         -0.14099220	         -1.71539667	          0.20796215	          0.02818504	
          8.18000000	          0.97823497	         -0.02418521	          0.20608596	         -0.20748729	         -0.12510650	          0.97020482	          0.00231809	         -0.99184850	         -0.12740168	         -1.70136348	          0.20757336	          0.02471828	
          8.19000000	          0.97841372	         -0.02079368	          0.20560694	         -0.20663648	         -0.11201709	          0.97198433	          0.00282036	         -0.99348870	         -0.11389579	         -1.68744301	          0.20708386	          0.02124924	
          8.20000000	          0.97859829	         -0.01741630	          0.20504162	         -0.20575278	         -0.09900868	          0.97358260	          0.00334470	         -0.99493415	         -0.10047318	         -1.67363173	          0.20650623	          0.01779531	
          8.21000000	          0.97878620	         -0.01406902	          0.20440067	         -0.20484761	         -0.08607504	          0.97500182	          0.00387648	         -0.99618931	         -0.08713107	         -1.65992460	          0.20585141	          0.01437296	
          8.22000000	          0.97897558	         -0.01076698	          0.20369310	         -0.20392998	         -0.07320890	          0.97624434	          0.00440095	         -0.99725851	         -0.07386544	         -1.64631529	          0.20512863	          0.01099776	
          8.23000000	          0.97916510	         -0.00752453	          0.20292632	         -0.20300657	         -0.06040210	          0.97731260	          0.00490336	         -0.99814576	         -0.06067116	         -1.63279635	          0.20434550	          0.00768448	
          8.24000000	          0.97935393	         -0.00435523	          0.20210617	         -0.20208178	         -0.04764576	          0.97820899	          0.00536918	         -0.99885480	         -0.04754218	         -1.61935936	          0.20350799	          0.00444701	
          8.25000000	          0.97954175	         -0.00127180	          0.20123701	         -0.20115788	         -0.03493036	          0.97893584	          0.00578427	         -0.99938894	         -0.03447158	         -1.60599510	          0.20262060	          0.00129836	
          8.26000000	          0.97972865	          0.00171396	          0.20032182	         -0.20023519	         -0.02224591	          0.97949527	          0.00613516	         -0.99975106	         -0.02145176	         -1.59269366	          0.20168639	         -0.00174942	
          8.27000000	          0.97991507	          0.00459122	          0.19936245	         -0.19931228	         -0.00958205	          0.97988918	          0.00640919	         -0.99994355	         -0.00847450	         -1.57944454	          0.20070726	         -0.00468529	
          8.28000000	          0.98010169	          0.00735020	          0.19835992	         -0.19838648	          0.00307181	          0.98011906	          0.00659475	         -0.99996827	          0.00446886	         -1.56623685	          0.19968431	         -0.00749929	
          8.29000000	          0.98028933	          0.00998216	          0.19731496	         -0.19745429	          0.01572631	          0.98018595	          0.00668134	         -0.99982650	          0.01738735	         -1.55305936	          0.19861827	         -0.01018252	
          8.30000000	          0.98047880	          0.01247948	          0.19622841	         -0.19651203	          0.02839205	          0.98009026	          0.00665969	         -0.99951896	          0.03029017	         -1.53990067	          0.19751006	         -0.01272726	
          8.31000000	          0.98067079	          0.01483566	          0.19510179	         -0.19555631	          0.04107942	          0.97983173	          0.00652178	         -0.99904574	          0.04318659	         -1.52674932	          0.19636123	         -0.01512692	
          8.32000000	          0.98086579	          0.01704536	          0.19393753	         -0.19458446	          0.05379840	          0.97940932	          0.00626086	         -0.99840632	          0.05608577	         -1.51359391	          0.19517431	         -0.01737613	
          8.33000000	          0.98106402	          0.01910447	          0.19273923	         -0.19359473	          0.06655844	          0.97882126	          0.00587144	         -0.99759962	          0.06899662	         -1.50042323	          0.19395296	         -0.01947076	
          8.34000000	          0.98126546	          0.02101016	          0.19151152	         -0.19258627	          0.07936829	          0.97806503	          0.00534936	         -0.99662392	          0.08192763	         -1.48722641	          0.19270194	         -0.02140802	
          8.35000000	          0.98146990	          0.02276095	          0.19025976	         -0.19155893	          0.09223584	          0.97713752	          0.00469181	         -0.99547702	          0.09488676	         -1.47399297	          0.19142674	         -0.02318652	
          8.36000000	          0.98167698	          0.02435676	          0.18898955	         -0.19051276	          0.10516809	          0.97603512	          0.00389738	         -0.99415614	          0.10788137	         -1.46071296	          0.19013305	         -0.02480629	
          8.37000000	          0.98188641	          0.02579896	          0.18770587	         -0.18944731	          0.11817104	          0.97475398	          0.00296624	         -0.99265806	          0.12091808	         -1.44737698	          0.18882598	         -0.02626885	
          8.38000000	          0.98209805	          0.02709033	          0.18641229	         -0.18836087	          0.13124968	          0.97329014	          0.00190020	         -0.99097913	          0.13400281	         -1.43397628	          0.18750915	         -0.02757715	
          8.39000000	          0.98231211	          0.02823506	          0.18510997	         -0.18724963	          0.14440785	          0.97163982	          0.00070297	         -0.98911534	          0.14714058	         -1.42050294	          0.18618376	         -0.02873556	
          8.40000000	          0.98252929	          0.02923867	          0.18379689	         -0.18610699	          0.15764820	          0.96979958	         -0.00061960	         -0.98706238	          0.16033549	         -1.40694995	          0.18484776	         -0.02974979	
          8.41000000	          0.98275084	          0.03010805	          0.18246722	         -0.18492307	          0.17097203	          0.96776651	         -0.00205923	         -0.98481575	          0.17359058	         -1.39331138	          0.18349522	         -0.03062692	
